<?xml version="1.0" encoding="utf-8"?>
<!-- Generator: Adobe Illustrator 27.0.0, SVG Export Plug-In . SVG Version: 6.00 Build 0)  -->
<svg version="1.1" id="Layer_1" xmlns="http://www.w3.org/2000/svg" xmlns:xlink="http://www.w3.org/1999/xlink" x="0px" y="0px"
	 viewBox="0 0 1920 1080" style="enable-background:new 0 0 1920 1080;" xml:space="preserve">
<style type="text/css">
	.st0{display:none;}
	.st1{display:inline;}
	.st2{clip-path:url(#SVGID_00000065065187692639705500000012443698387224017045_);}
	.st3{fill:#522BC2;}
	.st4{fill:#14202C;}
	.st5{fill:#007DDF;}
	.st6{fill:#9600BF;}
	.st7{fill:#FFFFFF;}
</style>
<g id="Layer_1_00000031175120241552308800000002851551549981955747_" class="st0">
	<g class="st1">
		<g>
			<g>
				<defs>
					<rect id="SVGID_1_" width="1920" height="1080"/>
				</defs>
				<clipPath id="SVGID_00000076603160100073628010000001315338687267276958_">
					<use xlink:href="#SVGID_1_"  style="overflow:visible;"/>
				</clipPath>
				<g style="clip-path:url(#SVGID_00000076603160100073628010000001315338687267276958_);">
					
						<image style="overflow:visible;enable-background:new    ;" width="988" height="555" xlink:href="9B8366C1.jpeg"  transform="matrix(1.9237 0 0 1.9459 9.5816 1.185575e-04)">
					</image>
				</g>
			</g>
		</g>
	</g>
</g>
<g id="Layer_6">
	<path class="st3" d="M734.2,84.5c0,0,96.1-89.2,186.7-84.3c95.2,5.1,127.5,84.3,127.5,84.3s57.3,137.9,255.7,41.5
		c191.5-93.1,219.8-92.6,296.3-55.6c76.5,37,163.7,171.1,215,316.7c0,0,43,91.9-50.2,150.7S1629,623.4,1629,623.4l-851.8-20.9
		L482.1,210.9"/>
</g>
<g id="Layer_4">
	<path class="st4" d="M524.6,583.8c0,0-143.9,8.9-379.3,90.7c-241.8,84-108.7,252.9-108.7,252.9s63.3,130.3,270,148.1
		c206.7,17.9,399-60,399-60s109.9-67.7,354.8,6.4c244.9,74.1,397.8,56.3,397.8,56.3s261.6-39.7,346.4-127.8s127.8-120,112.3-192.8
		c-15.5-72.8-70.8-158.9-179.2-165.2C720.9,532.9,824.1,549.7,524.6,583.8z"/>
</g>
<g id="Layer_5">
	<path class="st5" d="M482.1,219.9c2-3.3-52.6-131.5,133.8-171.1c0,0,108.9-36.4,193.5,104.7s326.1,88.1,326.1,88.1
		s119.2-13.9,145,64.6c25.8,78.4,211,217,211,217l-610.4,69.6L564.6,439.4L482.1,219.9z"/>
</g>
<g id="Layer_3">
	<polygon class="st6" points="516.5,162.7 543.3,251.7 650,478.5 705.5,486.1 705.5,567.9 651.8,570.4 651.8,695.5 705.5,668.1 
		705.5,573 759.3,568.5 752.1,457.4 705.5,458 705.5,151.5 570,134.9 	"/>
	<path class="st6" d="M874.4,205.2c2.9-0.5,73.1-71.5,180.6,0s92,297.5,92,297.5s-12,147.5-87.2,192.8c-75.3,45.3-95-80.5-95-80.5
		L874.4,205.2z"/>
	<polygon class="st6" points="1312.4,258.2 1360.2,231.3 1500.6,244.8 1496.4,546.1 1549.5,552.5 1554.3,641.9 1496.4,669.4 
		1496.4,760 1443.8,785.6 	"/>
</g>
<g id="Layer_2_00000073715252871060998840000008641693273581225101_">
	<polygon class="st7" points="650,478.5 650.6,177.7 516.5,162.7 343.6,450.7 343.6,540.4 547.9,558.2 548.9,684.1 651.8,695.5 
		651.8,570.4 705.5,570.4 705.5,486.1 	"/>
	<polygon class="st7" points="1310,258.2 1135.6,543 1135.6,626 1338.7,652.8 1338.7,776.7 1443.8,788.1 1443.8,666.8 1496.4,673.2 
		1496.4,582.5 1442.5,577.1 1443.8,274.8 	"/>
	<path class="st7" d="M1086.6,410.1c0,0-19.1-196.7-174.4-206.9c-155.3-10.2-158.9,189-158.9,189S734.2,613.2,831,696.2
		c96.8,83,172,25.5,172,25.5S1110.5,691.1,1086.6,410.1z"/>
</g>
</svg>
