<?xml version="1.0" encoding="utf-8"?>
<!-- Generator: Adobe Illustrator 27.0.0, SVG Export Plug-In . SVG Version: 6.00 Build 0)  -->
<svg version="1.1" id="Layer_1" xmlns="http://www.w3.org/2000/svg" xmlns:xlink="http://www.w3.org/1999/xlink" x="0px" y="0px"
	 viewBox="0 0 1920 1080" style="enable-background:new 0 0 1920 1080;" xml:space="preserve">
<style type="text/css">
	.st0{display:none;}
	.st1{display:inline;fill:#1A2837;}
	.st2{display:inline;}
	.st3{clip-path:url(#SVGID_00000141436012486797666530000009952761214408536746_);}
	.st4{fill:#2E0249;}
	.st5{fill:#F806CC;}
	.st6{fill:#570A57;}
	.st7{display:inline;fill:#9600BF;}
	.st8{fill:#A91079;}
	.st9{display:inline;fill:#FFFFFF;}
	.st10{clip-path:url(#SVGID_00000022523351790963000100000005405390947490878366_);fill:#FFFFFF;}
	.st11{clip-path:url(#SVGID_00000043457113593581138290000010872961794390860466_);fill:#F6F6F6;}
	.st12{clip-path:url(#SVGID_00000044143149403966834920000011084072388808259971_);fill:#EDEDED;}
	.st13{clip-path:url(#SVGID_00000124133731477509310190000010476523705919971492_);fill:#FFFFFF;}
	.st14{clip-path:url(#SVGID_00000138543812337951074020000008916534301846447010_);fill:#C6C6C6;}
	.st15{clip-path:url(#SVGID_00000173858295139544076230000011433323966179447192_);fill:#C6C6C6;}
	.st16{clip-path:url(#SVGID_00000070839249280573748180000002858841485216058789_);fill:#9D9D9C;}
	.st17{clip-path:url(#SVGID_00000121960433930239721040000002678040655190104765_);fill:#878787;}
	.st18{clip-path:url(#SVGID_00000146487178161245952210000000101891516023710595_);fill:#878787;}
	.st19{clip-path:url(#SVGID_00000027569089402406849640000016036816527771355804_);fill:#878787;}
	.st20{clip-path:url(#SVGID_00000162349302907638852110000003759700724447341725_);fill:#878787;}
	.st21{clip-path:url(#SVGID_00000156589981071885880990000017199289738693848253_);fill:#878787;}
	.st22{clip-path:url(#SVGID_00000048477752103078904460000003954431212304318642_);fill:#878787;}
	.st23{fill:#C6C6C6;}
	.st24{fill:#B2B2B2;}
	.st25{fill:#878787;}
</style>
<g id="Layer_10" class="st0">
	<rect class="st1" width="1920" height="1080"/>
</g>
<g id="Layer_1_00000034085338911602011780000010664522120843344053_" class="st0">
	<g class="st2">
		<g>
			<g>
				<defs>
					<rect id="SVGID_1_" width="1920" height="1080"/>
				</defs>
				<clipPath id="SVGID_00000152254040214653970030000009650442347637513653_">
					<use xlink:href="#SVGID_1_"  style="overflow:visible;"/>
				</clipPath>
				<g style="clip-path:url(#SVGID_00000152254040214653970030000009650442347637513653_);">
					
						<image style="overflow:visible;enable-background:new    ;" width="988" height="555" xlink:href="C7A7403C.jpeg"  transform="matrix(1.9237 0 0 1.9459 9.5816 1.185575e-04)">
					</image>
				</g>
			</g>
		</g>
	</g>
</g>
<g id="Layer_6">
	<path class="st4" d="M734.2,184.9c0,0,96.1-80.2,186.7-75.8c95.2,4.6,127.5,75.8,127.5,75.8s57.3,124,255.7,37.3
		c191.5-83.7,219.8-83.2,296.3-50c76.5,33.3,163.7,153.9,215,284.8c0,0,43,82.7-50.2,135.5c-93.2,52.8-136.2,76.9-136.2,76.9
		l-851.8-18.8L482.1,298.5"/>
</g>
<g id="Layer_4">
	<path class="st5" d="M524.6,633.8c0,0-191.2,31-379.3,81.5C-96.6,790.9,36.6,942.7,36.6,942.7s63.3,117.1,270,133.2
		c206.7,16.1,399-54,399-54s150.5-62,354.8,5.7c244.9,66.6,397.8,50.6,397.8,50.6s133.9,1.7,346.4-114.9
		c101.8-55.8,127.8-107.9,112.3-173.4c-15.5-65.5-86.2-150-234.2-163.3C665.9,573.3,824.1,603.2,524.6,633.8z"/>
</g>
<g id="Layer_5">
	<path class="st6" d="M482.1,441.4c-8.4-12.9-66-259.3,120.3-294.9c0,0,108.9-32.7,193.5,94.2s326.1,79.2,326.1,79.2
		s197-25.5,243.3,34.6c90.8,117.9,112.7,297.8,112.7,297.8l-610.4-16.6l-250.1,5.1C617.5,640.7,608,635.8,482.1,441.4z"/>
</g>
<g id="Layer_3" class="st0">
	<polygon class="st7" points="1040.5,440.1 1115.3,448 1115,605 1146,609 1146,651.7 1116,653 1116,718.3 1146,704 1146,654.3 
		1176,652 1172,594 1146,594.3 1146,434.3 1070.3,425.7 	"/>
	<path class="st7" d="M1240.2,462.4c1.6-0.3,40.8-37.3,100.8,0s51.3,155.3,51.3,155.3s-6.7,77-48.7,100.7s-53-42-53-42L1240.2,462.4
		z"/>
	<polygon class="st7" points="1484.7,490 1511.3,476 1589.7,483 1587.3,640.3 1617,643.7 1619.7,690.3 1587.3,704.7 1587.3,752 
		1558,765.3 	"/>
</g>
<g id="Layer_8">
	<path class="st8" d="M383.9,593.2c-3.2-102.5,93.1-182.7,197.9-163c1.4,0.3,2.8,0.6,4.3,0.8c137.4,28.7,32.3,132.1,152.9,106.8
		s149.3,114.4,149.3,114.4s-206.7-8.7-494.6,12.6L383.9,593.2z"/>
</g>
<g id="Layer_2_00000109739610400109214870000016720950023289855139_" class="st0">
	<polygon class="st9" points="1115,605 1115,449.5 1040.5,440.1 944,590.5 944,637.4 1058,646.7 1058.6,712.3 1116,718.3 1116,653 
		1146,653 1146,609 	"/>
	<polygon class="st9" points="1483.3,490 1386,638.7 1386,682 1499.3,696 1499.3,760.7 1558,766.7 1558,703.3 1587.3,706.7 
		1587.3,659.3 1557.3,656.5 1558,498.7 	"/>
	<path class="st9" d="M1358.7,569.3c0,0-10.7-102.7-97.3-108c-86.7-5.3-88.7,98.7-88.7,98.7S1162,675.3,1216,718.7
		c54,43.3,96,13.3,96,13.3S1372,716,1358.7,569.3z"/>
</g>
<g id="Layer_7" class="st0">
	<rect class="st1" width="1920" height="1080"/>
	<g class="st2">
		<g>
			<g>
				<defs>
					<rect id="SVGID_00000168096943715575089960000003829037487704774539_" x="-346.5" y="-797.8" width="1999.9" height="1999.8"/>
				</defs>
				<clipPath id="SVGID_00000031194016634283337110000016263780295074453648_">
					<use xlink:href="#SVGID_00000168096943715575089960000003829037487704774539_"  style="overflow:visible;"/>
				</clipPath>
				<polygon style="clip-path:url(#SVGID_00000031194016634283337110000016263780295074453648_);fill:#FFFFFF;" points="
					1653.3,1202 -346.7,1202 -346.7,-798 1653.3,-798 				"/>
			</g>
		</g>
		<g>
			<g>
				<defs>
					<path id="SVGID_00000036245191328630330650000000828997825846537911_" d="M1343.1,737.6c0,0,130.2-178.7,80.2-377.5
						C1399.8,266.9,1362,95,994.2,95C831.7,95,827-333.6,414.3-333.6c-616.7,0-674,883.1-340.2,1071.3L1343.1,737.6L1343.1,737.6z"
						/>
				</defs>
				<clipPath id="SVGID_00000003084882097258955910000011245539950787066524_">
					<use xlink:href="#SVGID_00000036245191328630330650000000828997825846537911_"  style="overflow:visible;"/>
				</clipPath>
				<polygon style="clip-path:url(#SVGID_00000003084882097258955910000011245539950787066524_);fill:#F6F6F6;" points="
					1434.7,783.8 -128,783.8 -128,-333.6 1434.7,-333.6 				"/>
			</g>
			<g>
				<defs>
					<path id="SVGID_00000037661032539413688450000005624370697214744717_" d="M1343.1,737.6c0,0,130.2-178.7,80.2-377.5
						C1399.8,266.9,1362,95,994.2,95C831.7,95,827-333.6,414.3-333.6c-616.7,0-674,883.1-340.2,1071.3L1343.1,737.6L1343.1,737.6z"
						/>
				</defs>
				<clipPath id="SVGID_00000014605572375244839120000005529890714780018824_">
					<use xlink:href="#SVGID_00000037661032539413688450000005624370697214744717_"  style="overflow:visible;"/>
				</clipPath>
				<path style="clip-path:url(#SVGID_00000014605572375244839120000005529890714780018824_);fill:#EDEDED;" d="M-176.9,350.2
					c0,0,360.2-345.4,1742.4,111.6v275.8H-176.9V350.2L-176.9,350.2z"/>
			</g>
			<g>
				<defs>
					<path id="SVGID_00000110444751664302270610000006631013807062526112_" d="M1343.1,737.6c0,0,130.2-178.7,80.2-377.5
						C1399.8,266.9,1362,95,994.2,95C831.7,95,827-333.6,414.3-333.6c-616.7,0-674,883.1-340.2,1071.3L1343.1,737.6L1343.1,737.6z"
						/>
				</defs>
				<clipPath id="SVGID_00000057843878933693399390000018158459552224477074_">
					<use xlink:href="#SVGID_00000110444751664302270610000006631013807062526112_"  style="overflow:visible;"/>
				</clipPath>
				<path style="clip-path:url(#SVGID_00000057843878933693399390000018158459552224477074_);fill:#FFFFFF;" d="M1163.8,412
					c0,99.4-80.6,180-180,180c-99.4,0-180-80.6-180-180s80.6-180,180-180C1083.2,232,1163.8,312.6,1163.8,412L1163.8,412z"/>
			</g>
			<g>
				<defs>
					<path id="SVGID_00000062173341076274673060000008738270028080499108_" d="M1343.1,737.6c0,0,130.2-178.7,80.2-377.5
						C1399.8,266.9,1362,95,994.2,95C831.7,95,827-333.6,414.3-333.6c-616.7,0-674,883.1-340.2,1071.3L1343.1,737.6L1343.1,737.6z"
						/>
				</defs>
				<clipPath id="SVGID_00000182504276858326235560000012857528992927480745_">
					<use xlink:href="#SVGID_00000062173341076274673060000008738270028080499108_"  style="overflow:visible;"/>
				</clipPath>
				<path style="clip-path:url(#SVGID_00000182504276858326235560000012857528992927480745_);fill:#C6C6C6;" d="M502.1,570.7
					c0,0,575.3-237.9,1775.6,166.9H502.1V570.7L502.1,570.7z"/>
			</g>
			<g>
				<defs>
					<path id="SVGID_00000116215250164679442770000001596371656828832150_" d="M1343.1,737.6c0,0,130.2-178.7,80.2-377.5
						C1399.8,266.9,1362,95,994.2,95C831.7,95,827-333.6,414.3-333.6c-616.7,0-674,883.1-340.2,1071.3L1343.1,737.6L1343.1,737.6z"
						/>
				</defs>
				<clipPath id="SVGID_00000064344548833910518380000004351784211311529144_">
					<use xlink:href="#SVGID_00000116215250164679442770000001596371656828832150_"  style="overflow:visible;"/>
				</clipPath>
				<path style="clip-path:url(#SVGID_00000064344548833910518380000004351784211311529144_);fill:#C6C6C6;" d="M813.9-55.7
					c-40.4,0-81.8-1-124-3c-91.9-4.3-188-13.4-285.6-27c-166.1-23.1-280.5-51.5-281.6-51.8c-2.5-0.6-4-3.1-3.3-5.6s3.1-4,5.6-3.4
					c1.1,0.3,115.1,28.6,280.7,51.6c152.8,21.2,382.1,42.1,606.7,21c2.5-0.2,4.8,1.6,5,4.2s-1.6,4.8-4.2,5
					C950.2-58.7,883.5-55.7,813.9-55.7L813.9-55.7z"/>
			</g>
			<g>
				<defs>
					<path id="SVGID_00000013186819622651095920000001044586545760287663_" d="M1343.1,737.6c0,0,130.2-178.7,80.2-377.5
						C1399.8,266.9,1362,95,994.2,95C831.7,95,827-333.6,414.3-333.6c-616.7,0-674,883.1-340.2,1071.3L1343.1,737.6L1343.1,737.6z"
						/>
				</defs>
				<clipPath id="SVGID_00000139260907690532701140000004348778847089479832_">
					<use xlink:href="#SVGID_00000013186819622651095920000001044586545760287663_"  style="overflow:visible;"/>
				</clipPath>
				<path style="clip-path:url(#SVGID_00000139260907690532701140000004348778847089479832_);fill:#9D9D9C;" d="M521.8,14.4v271.1
					c0,62-50.5,112.5-112.5,112.5h-53.2v289.8c0,28.9-23.4,52.3-52.3,52.3s-52.3-23.4-52.3-52.3V177.1h-59.3
					c-62,0-112.5-50.5-112.5-112.5V14.4c0-28.9,23.4-52.3,52.3-52.3s52.3,23.4,52.3,52.3v50.2c0,4.4,3.6,7.9,7.9,7.9h59.3v-179.4
					c0-28.9,23.4-52.3,52.3-52.3s52.3,23.4,52.3,52.3v400.3h53.2c4.4,0,8-3.6,8-8V14.4c0-28.9,23.4-52.3,52.3-52.3
					C498.4-37.9,521.8-14.5,521.8,14.4L521.8,14.4z"/>
			</g>
			<g>
				<defs>
					<path id="SVGID_00000171714120024246117780000005351911655926675111_" d="M1343.1,737.6c0,0,130.2-178.7,80.2-377.5
						C1399.8,266.9,1362,95,994.2,95C831.7,95,827-333.6,414.3-333.6c-616.7,0-674,883.1-340.2,1071.3L1343.1,737.6L1343.1,737.6z"
						/>
				</defs>
				<clipPath id="SVGID_00000124150052236997849800000015243286512105080991_">
					<use xlink:href="#SVGID_00000171714120024246117780000005351911655926675111_"  style="overflow:visible;"/>
				</clipPath>
				<path style="clip-path:url(#SVGID_00000124150052236997849800000015243286512105080991_);fill:#878787;" d="M320.3,58.9
					L320.3,58.9c-4.5,0-8-3.6-8-8v-75.9c0-4.5,3.6-8,8-8l0,0c4.5,0,8,3.6,8,8v75.9C328.4,55.3,324.8,58.9,320.3,58.9L320.3,58.9z"/>
			</g>
			<g>
				<defs>
					<path id="SVGID_00000122702953154487706810000005842944703968927390_" d="M1343.1,737.6c0,0,130.2-178.7,80.2-377.5
						C1399.8,266.9,1362,95,994.2,95C831.7,95,827-333.6,414.3-333.6c-616.7,0-674,883.1-340.2,1071.3L1343.1,737.6L1343.1,737.6z"
						/>
				</defs>
				<clipPath id="SVGID_00000132057075560045786970000001023708277188148657_">
					<use xlink:href="#SVGID_00000122702953154487706810000005842944703968927390_"  style="overflow:visible;"/>
				</clipPath>
				<path style="clip-path:url(#SVGID_00000132057075560045786970000001023708277188148657_);fill:#878787;" d="M292.7,319.7
					L292.7,319.7c-4.5,0-8-3.6-8-8v-75.9c0-4.4,3.6-8.1,8-8.1l0,0c4.5,0,8,3.6,8,8.1v75.9C300.8,316.1,297.1,319.7,292.7,319.7
					L292.7,319.7z"/>
			</g>
			<g>
				<defs>
					<path id="SVGID_00000079480295260751142650000016537295251097226920_" d="M1343.1,737.6c0,0,130.2-178.7,80.2-377.5
						C1399.8,266.9,1362,95,994.2,95C831.7,95,827-333.6,414.3-333.6c-616.7,0-674,883.1-340.2,1071.3L1343.1,737.6L1343.1,737.6z"
						/>
				</defs>
				<clipPath id="SVGID_00000008833575675644257170000011247878746085338514_">
					<use xlink:href="#SVGID_00000079480295260751142650000016537295251097226920_"  style="overflow:visible;"/>
				</clipPath>
				<path style="clip-path:url(#SVGID_00000008833575675644257170000011247878746085338514_);fill:#878787;" d="M462.6,227.6
					L462.6,227.6c-4.5,0-8-3.6-8-8.1v-75.9c0-4.4,3.6-8.1,8-8.1l0,0c4.5,0,8.1,3.6,8.1,8.1v75.9C470.7,224,467,227.6,462.6,227.6
					L462.6,227.6z"/>
			</g>
			<g>
				<defs>
					<path id="SVGID_00000137089929620111336180000007819151282872412055_" d="M1343.1,737.6c0,0,130.2-178.7,80.2-377.5
						C1399.8,266.9,1362,95,994.2,95C831.7,95,827-333.6,414.3-333.6c-616.7,0-674,883.1-340.2,1071.3L1343.1,737.6L1343.1,737.6z"
						/>
				</defs>
				<clipPath id="SVGID_00000133513376291277686350000011793108590361844101_">
					<use xlink:href="#SVGID_00000137089929620111336180000007819151282872412055_"  style="overflow:visible;"/>
				</clipPath>
				<path style="clip-path:url(#SVGID_00000133513376291277686350000011793108590361844101_);fill:#878787;" d="M153.1,104.9
					L153.1,104.9c-4.4,0-8.1-3.6-8.1-8.1V20.9c0-4.5,3.6-8.1,8.1-8.1l0,0c4.4,0,8.1,3.6,8.1,8.1v75.9
					C161.1,101.3,157.5,104.9,153.1,104.9L153.1,104.9z"/>
			</g>
			<g>
				<defs>
					<path id="SVGID_00000116213454372940294300000006877649787359562900_" d="M1343.1,737.6c0,0,130.2-178.7,80.2-377.5
						C1399.8,266.9,1362,95,994.2,95C831.7,95,827-333.6,414.3-333.6c-616.7,0-674,883.1-340.2,1071.3L1343.1,737.6L1343.1,737.6z"
						/>
				</defs>
				<clipPath id="SVGID_00000066478558837996372570000001107776039144769449_">
					<use xlink:href="#SVGID_00000116213454372940294300000006877649787359562900_"  style="overflow:visible;"/>
				</clipPath>
				<path style="clip-path:url(#SVGID_00000066478558837996372570000001107776039144769449_);fill:#878787;" d="M214.9,143.6v33.5
					h-16.1v-33.5c0-4.4,3.6-8.1,8.1-8.1c2.2,0,4.2,0.9,5.7,2.4C214.1,139.4,214.9,141.4,214.9,143.6L214.9,143.6z"/>
			</g>
			<g>
				<defs>
					<path id="SVGID_00000084525978461021306960000010350214153933741748_" d="M1343.1,737.6c0,0,130.2-178.7,80.2-377.5
						C1399.8,266.9,1362,95,994.2,95C831.7,95,827-333.6,414.3-333.6c-616.7,0-674,883.1-340.2,1071.3L1343.1,737.6L1343.1,737.6z"
						/>
				</defs>
				<clipPath id="SVGID_00000174594240247744921710000004118406347108089485_">
					<use xlink:href="#SVGID_00000084525978461021306960000010350214153933741748_"  style="overflow:visible;"/>
				</clipPath>
				<path style="clip-path:url(#SVGID_00000174594240247744921710000004118406347108089485_);fill:#878787;" d="M-153.2,570.7
					c0,0,619-237.9,1910.6,166.9H-153.2V570.7L-153.2,570.7z"/>
			</g>
		</g>
		<path class="st23" d="M1363.3,113.9v133.6c0,32.4-23.4,59.4-54.2,65c-3.1,0.6-6.2,0.9-9.5,1c-0.8,0-1.6,0-2.4,0H1266v247.3
			c0,17-13.7,30.7-30.7,30.7s-30.7-13.8-30.7-30.7V374h-34.8c-36.4,0-66.1-29.6-66.1-66.1v-85.4c0-16.9,13.8-30.7,30.7-30.7
			c17,0,30.7,13.8,30.7,30.7v85.4c0,2.6,2.1,4.7,4.7,4.7h34.8V94.1c0-17,13.8-30.7,30.7-30.7s30.7,13.8,30.7,30.7v158.1h31.2
			c2.6,0,4.7-2.1,4.7-4.7V113.9c0-17,13.8-30.7,30.7-30.7S1363.3,96.9,1363.3,113.9L1363.3,113.9z"/>
		<path class="st24" d="M1309.1,295.3v17.2c-3.1,0.6-6.2,0.9-9.5,1v-18.3c0-2.6,2.1-4.7,4.7-4.7c1.3,0,2.5,0.5,3.3,1.4
			C1308.6,292.8,1309.1,294,1309.1,295.3L1309.1,295.3z"/>
		<path class="st24" d="M1238.2,156.3L1238.2,156.3c-2.6,0-4.7-2.1-4.7-4.7v-44.6c0-2.6,2.1-4.7,4.7-4.7l0,0c2.6,0,4.7,2.1,4.7,4.7
			v44.6C1242.9,154.1,1240.8,156.3,1238.2,156.3L1238.2,156.3z"/>
		<path class="st24" d="M1233.5,277.2L1233.5,277.2c-2.6,0-4.7-2.1-4.7-4.7v-44.6c0-2.6,2.1-4.7,4.7-4.7l0,0c2.6,0,4.7,2.1,4.7,4.7
			v44.6C1238.2,275.1,1236.1,277.2,1233.5,277.2L1233.5,277.2z"/>
		<path class="st24" d="M1337.8,191.4L1337.8,191.4c-2.6,0-4.7-2.1-4.7-4.7v-44.6c0-2.6,2.1-4.7,4.7-4.7l0,0c2.6,0,4.7,2.1,4.7,4.7
			v44.6C1342.5,189.3,1340.4,191.4,1337.8,191.4L1337.8,191.4z"/>
		<path class="st24" d="M1127.5,296.2L1127.5,296.2c-2.6,0-4.7-2.1-4.7-4.7v-44.6c0-2.6,2.1-4.7,4.7-4.7l0,0c2.6,0,4.7,2.1,4.7,4.7
			v44.6C1132.2,294,1130.1,296.2,1127.5,296.2L1127.5,296.2z"/>
		<path class="st23" d="M827.3,30.3c-9.9,0-19.9,0-30-0.1c-2.5,0-4.6-2.1-4.6-4.6c0-2.5,2.1-4.6,4.6-4.6c0,0,0,0,0,0
			C937.3,22,1049.3,15.8,1139.8,2c127.9-19.6,205.2-54,229.9-102.3c20.6-40.3,21.1-86.2,1.3-122.6c-14.7-27.1-47.2-61-117.9-68.3
			c-2.5-0.3-4.4-2.5-4.1-5.1s2.5-4.4,5.1-4.1c30.5,3.1,57,11.5,78.8,24.9c20.1,12.3,35.7,28.5,46.3,48.2
			c21.2,39.1,20.8,88.1-1.2,131.2C1335.1-12.2,1149.9,30.3,827.3,30.3L827.3,30.3z"/>
		<path class="st23" d="M715.6,28.6c0,0-0.1,0-0.2,0c-51.7-1.6-85-3.8-85.3-3.8c-2.5-0.2-4.5-2.4-4.3-4.9s2.4-4.5,4.9-4.3
			c0.3,0,33.5,2.2,85,3.8c2.5,0.1,4.5,2.2,4.5,4.8C720.2,26.6,718.1,28.6,715.6,28.6L715.6,28.6z"/>
		<path class="st23" d="M815.1-55.8c-161.7,0-313.8-16-425.8-32c-2.5-0.4-4.3-2.7-3.9-5.2c0.4-2.5,2.7-4.3,5.2-3.9
			c156.7,22.5,391.8,44.7,621.8,23.2c2.5-0.2,4.8,1.6,5,4.2s-1.6,4.8-4.2,5C946.9-58.4,880.2-55.8,815.1-55.8L815.1-55.8z"/>
		<path class="st25" d="M574.3,517.2c0,0-28.2-59,0-79c0,0-5.6,39.1,12.7,79c0,0-3.5-67.9,25.4-91.9c0,0,3.5,57.2-16.2,91.9
			c0,0,24-85.6,54.3-103.3c0,0-16.2,84.9-40.2,103.3c0,0,64.8-43.5,63.4-62.7c0,0,5.6,28.8-49.3,65.3c0,0,45.1-17,74.7-46.5
			c0,0-24.3,41.7-53.4,51.6C645.7,525,617.3,536.8,574.3,517.2L574.3,517.2z"/>
		<path class="st25" d="M14.6,542.9c0,0-28.2-59,0-79c0,0-5.6,39.1,12.7,79c0,0-3.5-67.9,25.4-91.9c0,0,3.5,57.2-16.2,91.9
			c0,0,24-85.6,54.3-103.3c0,0-16.2,84.8-40.2,103.3c0,0,64.8-43.5,63.4-62.7c0,0,5.6,28.8-49.3,65.3c0,0,45.1-17,74.7-46.5
			c0,0-24.3,41.7-53.4,51.6C86,550.7,57.6,562.5,14.6,542.9L14.6,542.9z"/>
		<path class="st23" d="M1008.1,513.1c0,0-25.7-31.4-11.7-47.5c0,0,2.4,24.4,19.4,45.6c0,0-12.2-40.3,1.6-59.1
			c0,0,10.6,33.9,3.9,57.7c0,0,1.7-55.1,17.3-70.2c0,0,2.8,53.5-8.8,68.2c0,0,32.6-35.8,28.9-47.2c0,0,7.7,16.5-20,46.6
			c0,0,24.6-16.9,38.1-39.1c0,0-8.4,28.7-24.4,39C1052.2,507.2,1036.8,518.5,1008.1,513.1L1008.1,513.1z"/>
		<path class="st25" d="M601.5-144.3c0,0,42.3,0.2,55.4-12C670.1-168.6,626-163.3,601.5-144.3L601.5-144.3z"/>
		<path class="st23" d="M1174.7-51c0,0,42.3,0.2,55.4-12C1243.3-75.2,1199.1-70,1174.7-51L1174.7-51z"/>
		<path class="st23" d="M983.8,128c0,0,34.2,24.9,52,22.6C1053.7,148.4,1014.8,126.8,983.8,128L983.8,128z"/>
		<path class="st25" d="M1174.7-300.4c0,0-70-30-100.4-19C1043.9-308.3,1120.8-286,1174.7-300.4L1174.7-300.4z"/>
	</g>
</g>
<g id="Layer_9">
	<path class="st8" d="M1016.2,442.7c0,6.9-5.6,12.5-12.7,12.7c-20.8,0.7-59.7-3.1-59.7-40.1c0-50.5,0-115.6,0-115.6
		s-1.6-55.9-51-55.9c-49.4,0-58.1,48.2-58.1,48.2v163.4c0,0,19.1,102.4,125,102.4h50.7c3.2,0,5.9,2.5,5.9,5.6L1016,791l109.3,6.7
		l0.8-335.3c0-4.8,4.1-8.6,9.1-8.5l45.3,1c18.8,0.4,37.6-2.7,54.9-9.9c30.1-12.5,65.2-40,65.2-100.8c0-95.7,0-234.2,0-234.2
		s-8-53.6-55.7-52.8c-47.8,0.8-55.7,50.5-55.7,50.5l-0.7,219.7c0,11.8-10,21.4-22.3,21.4h-39.9V65.4c0,0-13.5-42.1-58.5-40.6
		c-45,1.5-52.2,46.7-52.2,46.7L1016.2,442.7z"/>
</g>
</svg>
